<mxfile host="app.diagrams.net" agent="Mozilla/5.0 (Windows NT 10.0; Win64; x64) AppleWebKit/537.36 (KHTML, like Gecko) Chrome/132.0.0.0 Safari/537.36 OPR/117.0.0.0" version="26.2.13">
  <diagram name="Page-1" id="0mFZZunXuhMRY3-1rmLe">
    <mxGraphModel dx="1387" dy="765" grid="1" gridSize="10" guides="1" tooltips="1" connect="1" arrows="1" fold="1" page="1" pageScale="1" pageWidth="850" pageHeight="400" math="0" shadow="0">
      <root>
        <mxCell id="0" />
        <mxCell id="1" parent="0" />
        <mxCell id="qXg2BpHol0jNkT4vchh1-1" value="&lt;div style=&quot;font-size: 19px;&quot;&gt;&lt;span style=&quot;color: light-dark(rgb(204, 0, 0), rgb(255, 163, 163)); background-color: transparent;&quot;&gt;STM32G474RET6&lt;/span&gt;&lt;/div&gt;&lt;div style=&quot;font-size: 19px;&quot;&gt;&lt;span style=&quot;color: light-dark(rgb(204, 0, 0), rgb(255, 163, 163)); background-color: transparent;&quot;&gt;Microcontroller&lt;/span&gt;&lt;/div&gt;" style="rounded=1;whiteSpace=wrap;html=1;strokeColor=#CC0000;" vertex="1" parent="1">
          <mxGeometry x="135" y="30" width="177" height="104" as="geometry" />
        </mxCell>
        <mxCell id="qXg2BpHol0jNkT4vchh1-2" value="st7735.h" style="rounded=1;whiteSpace=wrap;html=1;" vertex="1" parent="1">
          <mxGeometry x="32" y="194" width="80" height="40" as="geometry" />
        </mxCell>
        <mxCell id="qXg2BpHol0jNkT4vchh1-3" value="st7735.c" style="rounded=1;whiteSpace=wrap;html=1;" vertex="1" parent="1">
          <mxGeometry x="32" y="254" width="80" height="40" as="geometry" />
        </mxCell>
        <mxCell id="qXg2BpHol0jNkT4vchh1-4" value="&lt;font color=&quot;#0000cc&quot;&gt;LCD TFT screen&lt;/font&gt;" style="rounded=0;whiteSpace=wrap;html=1;strokeColor=#0000CC;" vertex="1" parent="1">
          <mxGeometry x="32" y="334" width="80" height="40" as="geometry" />
        </mxCell>
        <mxCell id="qXg2BpHol0jNkT4vchh1-5" value="servos.h" style="rounded=1;whiteSpace=wrap;html=1;" vertex="1" parent="1">
          <mxGeometry x="135" y="194" width="80" height="40" as="geometry" />
        </mxCell>
        <mxCell id="qXg2BpHol0jNkT4vchh1-6" value="servos.c" style="rounded=1;whiteSpace=wrap;html=1;" vertex="1" parent="1">
          <mxGeometry x="135" y="254" width="80" height="40" as="geometry" />
        </mxCell>
        <mxCell id="qXg2BpHol0jNkT4vchh1-7" value="&lt;font color=&quot;#0000cc&quot;&gt;Servos x5&lt;/font&gt;" style="rounded=0;whiteSpace=wrap;html=1;strokeColor=#0000CC;" vertex="1" parent="1">
          <mxGeometry x="135" y="334" width="80" height="40" as="geometry" />
        </mxCell>
        <mxCell id="qXg2BpHol0jNkT4vchh1-8" value="neopixel.h" style="rounded=1;whiteSpace=wrap;html=1;" vertex="1" parent="1">
          <mxGeometry x="239" y="194" width="80" height="40" as="geometry" />
        </mxCell>
        <mxCell id="qXg2BpHol0jNkT4vchh1-9" value="neopixel.c" style="rounded=1;whiteSpace=wrap;html=1;" vertex="1" parent="1">
          <mxGeometry x="239" y="254" width="80" height="40" as="geometry" />
        </mxCell>
        <mxCell id="qXg2BpHol0jNkT4vchh1-10" value="&lt;div style=&quot;font-size: 11px;&quot;&gt;&lt;font color=&quot;#0000cc&quot;&gt;Neopixel&lt;/font&gt;&lt;/div&gt;&lt;div style=&quot;font-size: 11px;&quot;&gt;&lt;font color=&quot;#0000cc&quot;&gt;LEDs&lt;/font&gt;&lt;/div&gt;" style="rounded=0;whiteSpace=wrap;html=1;strokeColor=#0000CC;" vertex="1" parent="1">
          <mxGeometry x="239" y="334" width="80" height="40" as="geometry" />
        </mxCell>
        <mxCell id="qXg2BpHol0jNkT4vchh1-11" value="mp3.h" style="rounded=1;whiteSpace=wrap;html=1;" vertex="1" parent="1">
          <mxGeometry x="342" y="194" width="80" height="40" as="geometry" />
        </mxCell>
        <mxCell id="qXg2BpHol0jNkT4vchh1-12" value="mp3.c" style="rounded=1;whiteSpace=wrap;html=1;" vertex="1" parent="1">
          <mxGeometry x="342" y="254" width="80" height="40" as="geometry" />
        </mxCell>
        <mxCell id="qXg2BpHol0jNkT4vchh1-13" value="&lt;div&gt;&lt;font color=&quot;#0000cc&quot;&gt;Module MP3&lt;/font&gt;&lt;/div&gt;&lt;div&gt;&lt;font color=&quot;#0000cc&quot;&gt;+ microSD&lt;/font&gt;&lt;br&gt;&lt;/div&gt;" style="rounded=0;whiteSpace=wrap;html=1;strokeColor=#0000CC;" vertex="1" parent="1">
          <mxGeometry x="342" y="334" width="80" height="40" as="geometry" />
        </mxCell>
        <mxCell id="qXg2BpHol0jNkT4vchh1-14" value="" style="endArrow=classic;html=1;rounded=0;entryX=0.5;entryY=0;entryDx=0;entryDy=0;exitX=0.25;exitY=1;exitDx=0;exitDy=0;" edge="1" parent="1" source="qXg2BpHol0jNkT4vchh1-1" target="qXg2BpHol0jNkT4vchh1-2">
          <mxGeometry width="50" height="50" relative="1" as="geometry">
            <mxPoint x="282" y="138" as="sourcePoint" />
            <mxPoint x="442" y="188" as="targetPoint" />
          </mxGeometry>
        </mxCell>
        <mxCell id="qXg2BpHol0jNkT4vchh1-15" value="" style="endArrow=classic;html=1;rounded=0;entryX=0.5;entryY=0;entryDx=0;entryDy=0;exitX=0.5;exitY=1;exitDx=0;exitDy=0;" edge="1" parent="1" source="qXg2BpHol0jNkT4vchh1-1" target="qXg2BpHol0jNkT4vchh1-5">
          <mxGeometry width="50" height="50" relative="1" as="geometry">
            <mxPoint x="392" y="238" as="sourcePoint" />
            <mxPoint x="442" y="188" as="targetPoint" />
          </mxGeometry>
        </mxCell>
        <mxCell id="qXg2BpHol0jNkT4vchh1-16" value="" style="endArrow=classic;html=1;rounded=0;entryX=0.5;entryY=0;entryDx=0;entryDy=0;exitX=0.75;exitY=1;exitDx=0;exitDy=0;" edge="1" parent="1" source="qXg2BpHol0jNkT4vchh1-1" target="qXg2BpHol0jNkT4vchh1-8">
          <mxGeometry width="50" height="50" relative="1" as="geometry">
            <mxPoint x="392" y="238" as="sourcePoint" />
            <mxPoint x="442" y="188" as="targetPoint" />
          </mxGeometry>
        </mxCell>
        <mxCell id="qXg2BpHol0jNkT4vchh1-17" value="" style="endArrow=classic;html=1;rounded=0;entryX=0.5;entryY=0;entryDx=0;entryDy=0;exitX=0.895;exitY=1.007;exitDx=0;exitDy=0;exitPerimeter=0;" edge="1" parent="1" source="qXg2BpHol0jNkT4vchh1-1" target="qXg2BpHol0jNkT4vchh1-11">
          <mxGeometry width="50" height="50" relative="1" as="geometry">
            <mxPoint x="392" y="238" as="sourcePoint" />
            <mxPoint x="442" y="188" as="targetPoint" />
          </mxGeometry>
        </mxCell>
        <mxCell id="qXg2BpHol0jNkT4vchh1-18" value="" style="endArrow=classic;html=1;rounded=0;entryX=0.5;entryY=0;entryDx=0;entryDy=0;exitX=0.5;exitY=1;exitDx=0;exitDy=0;" edge="1" parent="1">
          <mxGeometry width="50" height="50" relative="1" as="geometry">
            <mxPoint x="71.84000000000003" y="234" as="sourcePoint" />
            <mxPoint x="71.84000000000003" y="254" as="targetPoint" />
          </mxGeometry>
        </mxCell>
        <mxCell id="qXg2BpHol0jNkT4vchh1-19" value="" style="endArrow=classic;html=1;rounded=0;entryX=0.5;entryY=0;entryDx=0;entryDy=0;exitX=0.5;exitY=1;exitDx=0;exitDy=0;" edge="1" parent="1">
          <mxGeometry width="50" height="50" relative="1" as="geometry">
            <mxPoint x="174.84000000000003" y="234" as="sourcePoint" />
            <mxPoint x="174.84000000000003" y="254" as="targetPoint" />
          </mxGeometry>
        </mxCell>
        <mxCell id="qXg2BpHol0jNkT4vchh1-20" value="" style="endArrow=classic;html=1;rounded=0;entryX=0.5;entryY=0;entryDx=0;entryDy=0;exitX=0.5;exitY=1;exitDx=0;exitDy=0;" edge="1" parent="1">
          <mxGeometry width="50" height="50" relative="1" as="geometry">
            <mxPoint x="278.84" y="234" as="sourcePoint" />
            <mxPoint x="278.84" y="254" as="targetPoint" />
          </mxGeometry>
        </mxCell>
        <mxCell id="qXg2BpHol0jNkT4vchh1-21" value="" style="endArrow=classic;html=1;rounded=0;entryX=0.5;entryY=0;entryDx=0;entryDy=0;exitX=0.5;exitY=1;exitDx=0;exitDy=0;" edge="1" parent="1">
          <mxGeometry width="50" height="50" relative="1" as="geometry">
            <mxPoint x="381.8399999999999" y="234" as="sourcePoint" />
            <mxPoint x="381.8399999999999" y="254" as="targetPoint" />
          </mxGeometry>
        </mxCell>
        <mxCell id="qXg2BpHol0jNkT4vchh1-22" value="" style="endArrow=classic;html=1;rounded=0;entryX=0.5;entryY=0;entryDx=0;entryDy=0;exitX=0.5;exitY=1;exitDx=0;exitDy=0;strokeColor=#0000CC;" edge="1" parent="1">
          <mxGeometry width="50" height="50" relative="1" as="geometry">
            <mxPoint x="72" y="294" as="sourcePoint" />
            <mxPoint x="71.84000000000003" y="334" as="targetPoint" />
          </mxGeometry>
        </mxCell>
        <mxCell id="qXg2BpHol0jNkT4vchh1-23" value="" style="endArrow=classic;html=1;rounded=0;entryX=0.5;entryY=0;entryDx=0;entryDy=0;exitX=0.5;exitY=1;exitDx=0;exitDy=0;strokeColor=#0000CC;" edge="1" parent="1">
          <mxGeometry width="50" height="50" relative="1" as="geometry">
            <mxPoint x="175" y="294" as="sourcePoint" />
            <mxPoint x="174.84000000000003" y="334" as="targetPoint" />
          </mxGeometry>
        </mxCell>
        <mxCell id="qXg2BpHol0jNkT4vchh1-24" value="" style="endArrow=classic;html=1;rounded=0;entryX=0.5;entryY=0;entryDx=0;entryDy=0;exitX=0.5;exitY=1;exitDx=0;exitDy=0;strokeColor=#0000CC;" edge="1" parent="1">
          <mxGeometry width="50" height="50" relative="1" as="geometry">
            <mxPoint x="279" y="294" as="sourcePoint" />
            <mxPoint x="278.84000000000003" y="334" as="targetPoint" />
          </mxGeometry>
        </mxCell>
        <mxCell id="qXg2BpHol0jNkT4vchh1-25" value="" style="endArrow=classic;html=1;rounded=0;entryX=0.5;entryY=0;entryDx=0;entryDy=0;exitX=0.5;exitY=1;exitDx=0;exitDy=0;strokeColor=#0000CC;" edge="1" parent="1">
          <mxGeometry width="50" height="50" relative="1" as="geometry">
            <mxPoint x="382" y="294" as="sourcePoint" />
            <mxPoint x="381.84000000000003" y="334" as="targetPoint" />
          </mxGeometry>
        </mxCell>
        <mxCell id="qXg2BpHol0jNkT4vchh1-26" value="&lt;font color=&quot;#0000cc&quot;&gt;SPI&lt;/font&gt;" style="text;html=1;align=center;verticalAlign=middle;whiteSpace=wrap;rounded=0;" vertex="1" parent="1">
          <mxGeometry x="67" y="300" width="40" height="20" as="geometry" />
        </mxCell>
        <mxCell id="qXg2BpHol0jNkT4vchh1-27" value="&lt;font color=&quot;#0000cc&quot;&gt;PWM x5&lt;/font&gt;" style="text;html=1;align=center;verticalAlign=middle;whiteSpace=wrap;rounded=0;" vertex="1" parent="1">
          <mxGeometry x="177" y="300" width="48" height="20" as="geometry" />
        </mxCell>
        <mxCell id="qXg2BpHol0jNkT4vchh1-28" value="&lt;font color=&quot;#0000cc&quot;&gt;PWM+DMA&lt;/font&gt;" style="text;html=1;align=center;verticalAlign=middle;whiteSpace=wrap;rounded=0;" vertex="1" parent="1">
          <mxGeometry x="283" y="290" width="64" height="40" as="geometry" />
        </mxCell>
        <mxCell id="qXg2BpHol0jNkT4vchh1-29" value="&lt;font color=&quot;#0000cc&quot;&gt;USART&lt;/font&gt;" style="text;html=1;align=center;verticalAlign=middle;whiteSpace=wrap;rounded=0;" vertex="1" parent="1">
          <mxGeometry x="384" y="300" width="48" height="20" as="geometry" />
        </mxCell>
        <mxCell id="qXg2BpHol0jNkT4vchh1-30" value="&lt;div style=&quot;font-size: 19px;&quot;&gt;&lt;span style=&quot;color: light-dark(rgb(204, 0, 0), rgb(255, 163, 163)); background-color: transparent;&quot;&gt;STM32G431KBT6&lt;/span&gt;&lt;/div&gt;&lt;div style=&quot;font-size: 19px;&quot;&gt;&lt;span style=&quot;color: light-dark(rgb(204, 0, 0), rgb(255, 163, 163)); background-color: transparent;&quot;&gt;Microcontroller&lt;/span&gt;&lt;/div&gt;" style="rounded=1;whiteSpace=wrap;html=1;strokeColor=#CC0000;" vertex="1" parent="1">
          <mxGeometry x="636" y="30" width="177" height="104" as="geometry" />
        </mxCell>
        <mxCell id="qXg2BpHol0jNkT4vchh1-31" value="&lt;font color=&quot;#0000cc&quot;&gt;Modules HC05&lt;/font&gt;" style="rounded=0;whiteSpace=wrap;html=1;strokeColor=#0000CC;" vertex="1" parent="1">
          <mxGeometry x="372" y="30" width="80" height="40" as="geometry" />
        </mxCell>
        <mxCell id="qXg2BpHol0jNkT4vchh1-32" value="&lt;div&gt;bluetooth.h&lt;/div&gt;&lt;div&gt;bluetooth.c&lt;/div&gt;" style="rounded=1;whiteSpace=wrap;html=1;" vertex="1" parent="1">
          <mxGeometry x="428" y="94" width="80" height="40" as="geometry" />
        </mxCell>
        <mxCell id="qXg2BpHol0jNkT4vchh1-33" value="" style="endArrow=classic;html=1;rounded=0;entryX=0;entryY=0.5;entryDx=0;entryDy=0;exitX=1.002;exitY=0.81;exitDx=0;exitDy=0;exitPerimeter=0;" edge="1" parent="1" source="qXg2BpHol0jNkT4vchh1-1" target="qXg2BpHol0jNkT4vchh1-32">
          <mxGeometry width="50" height="50" relative="1" as="geometry">
            <mxPoint x="373" y="118" as="sourcePoint" />
            <mxPoint x="502" y="62" as="targetPoint" />
          </mxGeometry>
        </mxCell>
        <mxCell id="qXg2BpHol0jNkT4vchh1-34" value="" style="endArrow=classic;html=1;rounded=0;entryX=1;entryY=0.5;entryDx=0;entryDy=0;exitX=-0.003;exitY=0.811;exitDx=0;exitDy=0;exitPerimeter=0;" edge="1" parent="1" source="qXg2BpHol0jNkT4vchh1-30" target="qXg2BpHol0jNkT4vchh1-32">
          <mxGeometry width="50" height="50" relative="1" as="geometry">
            <mxPoint x="620" y="142" as="sourcePoint" />
            <mxPoint x="574" y="86" as="targetPoint" />
          </mxGeometry>
        </mxCell>
        <mxCell id="qXg2BpHol0jNkT4vchh1-35" value="&lt;font color=&quot;#0000cc&quot;&gt;Modules HC05&lt;/font&gt;" style="rounded=0;whiteSpace=wrap;html=1;strokeColor=#0000CC;" vertex="1" parent="1">
          <mxGeometry x="500" y="30" width="80" height="40" as="geometry" />
        </mxCell>
        <mxCell id="qXg2BpHol0jNkT4vchh1-36" value="" style="endArrow=classic;html=1;rounded=0;entryX=0.467;entryY=0.993;entryDx=0;entryDy=0;entryPerimeter=0;exitX=0.146;exitY=0.002;exitDx=0;exitDy=0;exitPerimeter=0;" edge="1" parent="1" source="qXg2BpHol0jNkT4vchh1-32" target="qXg2BpHol0jNkT4vchh1-31">
          <mxGeometry width="50" height="50" relative="1" as="geometry">
            <mxPoint x="428" y="144" as="sourcePoint" />
            <mxPoint x="478" y="94" as="targetPoint" />
          </mxGeometry>
        </mxCell>
        <mxCell id="qXg2BpHol0jNkT4vchh1-37" value="" style="endArrow=classic;html=1;rounded=0;entryX=0.5;entryY=1;entryDx=0;entryDy=0;exitX=0.814;exitY=-0.006;exitDx=0;exitDy=0;exitPerimeter=0;" edge="1" parent="1" source="qXg2BpHol0jNkT4vchh1-32" target="qXg2BpHol0jNkT4vchh1-35">
          <mxGeometry width="50" height="50" relative="1" as="geometry">
            <mxPoint x="444" y="128" as="sourcePoint" />
            <mxPoint x="494" y="78" as="targetPoint" />
          </mxGeometry>
        </mxCell>
        <mxCell id="qXg2BpHol0jNkT4vchh1-38" value="" style="endArrow=classic;startArrow=classic;html=1;rounded=0;entryX=0;entryY=0.5;entryDx=0;entryDy=0;exitX=1;exitY=0.5;exitDx=0;exitDy=0;dashed=1;strokeColor=#0000FF;" edge="1" parent="1" source="qXg2BpHol0jNkT4vchh1-31" target="qXg2BpHol0jNkT4vchh1-35">
          <mxGeometry width="50" height="50" relative="1" as="geometry">
            <mxPoint x="396" y="136" as="sourcePoint" />
            <mxPoint x="446" y="86" as="targetPoint" />
          </mxGeometry>
        </mxCell>
        <mxCell id="qXg2BpHol0jNkT4vchh1-39" value="" style="endArrow=classic;html=1;rounded=0;entryX=0;entryY=0.5;entryDx=0;entryDy=0;strokeColor=#0000FF;exitX=1;exitY=0.192;exitDx=0;exitDy=0;exitPerimeter=0;" edge="1" parent="1" source="qXg2BpHol0jNkT4vchh1-1" target="qXg2BpHol0jNkT4vchh1-31">
          <mxGeometry width="50" height="50" relative="1" as="geometry">
            <mxPoint x="372" y="50" as="sourcePoint" />
            <mxPoint x="414" y="94" as="targetPoint" />
          </mxGeometry>
        </mxCell>
        <mxCell id="qXg2BpHol0jNkT4vchh1-40" value="" style="endArrow=classic;html=1;rounded=0;entryX=1;entryY=0.5;entryDx=0;entryDy=0;exitX=-0.002;exitY=0.193;exitDx=0;exitDy=0;exitPerimeter=0;strokeColor=#0000FF;" edge="1" parent="1" source="qXg2BpHol0jNkT4vchh1-30" target="qXg2BpHol0jNkT4vchh1-35">
          <mxGeometry width="50" height="50" relative="1" as="geometry">
            <mxPoint x="428" y="120" as="sourcePoint" />
            <mxPoint x="478" y="70" as="targetPoint" />
          </mxGeometry>
        </mxCell>
        <mxCell id="qXg2BpHol0jNkT4vchh1-41" value="&lt;font style=&quot;color: rgb(0, 0, 255);&quot;&gt;UART&lt;/font&gt;" style="text;html=1;align=center;verticalAlign=middle;whiteSpace=wrap;rounded=0;" vertex="1" parent="1">
          <mxGeometry x="308" y="26" width="60" height="30" as="geometry" />
        </mxCell>
        <mxCell id="qXg2BpHol0jNkT4vchh1-42" value="&lt;font style=&quot;color: rgb(0, 0, 255);&quot;&gt;UART&lt;/font&gt;" style="text;html=1;align=center;verticalAlign=middle;whiteSpace=wrap;rounded=0;" vertex="1" parent="1">
          <mxGeometry x="580" y="26" width="60" height="30" as="geometry" />
        </mxCell>
      </root>
    </mxGraphModel>
  </diagram>
</mxfile>
